<svg xmlns="http://www.w3.org/2000/svg" viewBox="0 0 160 160">
  <!-- destellos -->
  <line x1="28" y1="40" x2="28" y2="52" stroke="#FFE168" stroke-width="2.5" stroke-linecap="round"/>
  <line x1="22" y1="46" x2="34" y2="46" stroke="#FFE168" stroke-width="2.5" stroke-linecap="round"/>
  <line x1="24" y1="42" x2="32" y2="50" stroke="#FFE168" stroke-width="2" stroke-linecap="round"/>
  <line x1="32" y1="42" x2="24" y2="50" stroke="#FFE168" stroke-width="2" stroke-linecap="round"/>
  <line x1="130" y1="55" x2="130" y2="64" stroke="#FFE168" stroke-width="2" stroke-linecap="round"/>
  <line x1="125" y1="59" x2="135" y2="59" stroke="#FFE168" stroke-width="2" stroke-linecap="round"/>
  <line x1="35" y1="108" x2="35" y2="116" stroke="#FFE168" stroke-width="2" stroke-linecap="round"/>
  <line x1="31" y1="112" x2="39" y2="112" stroke="#FFE168" stroke-width="2" stroke-linecap="round"/>
  <!-- blob -->
  <path d="M45 120 Q35 94 55 72 Q70 52 93 55 Q120 53 133 78 Q148 105 128 127 Q112 146 80 144 Q48 144 45 120Z" fill="#FFE168"/>
  <!-- espejo (ovalo) -->
  <ellipse cx="110" cy="85" rx="18" ry="22" fill="none" stroke="#2D1F60" stroke-width="2.5"/>
  <line x1="110" y1="107" x2="110" y2="118" stroke="#2D1F60" stroke-width="2.5" stroke-linecap="round"/>
  <line x1="100" y1="118" x2="120" y2="118" stroke="#2D1F60" stroke-width="2.5" stroke-linecap="round"/>
  <!-- reflection smile in mirror -->
  <path d="M104 87 Q110 93 116 87" stroke="#2D1F60" stroke-width="1.8" fill="none" stroke-linecap="round"/>
  <!-- piernas -->
  <line x1="72" y1="118" x2="60" y2="140" stroke="#2D1F60" stroke-width="3" stroke-linecap="round"/>
  <line x1="72" y1="118" x2="84" y2="140" stroke="#2D1F60" stroke-width="3" stroke-linecap="round"/>
  <!-- torso -->
  <line x1="72" y1="118" x2="72" y2="86" stroke="#2D1F60" stroke-width="3" stroke-linecap="round"/>
  <!-- brazo mirando espejo -->
  <path d="M72 96 Q88 88 96 82" stroke="#2D1F60" stroke-width="3" fill="none" stroke-linecap="round"/>
  <!-- brazo libre -->
  <line x1="72" y1="96" x2="52" y2="88" stroke="#2D1F60" stroke-width="3" stroke-linecap="round"/>
  <!-- cabeza -->
  <circle cx="72" cy="72" r="14" fill="none" stroke="#2D1F60" stroke-width="2.5"/>
  <!-- ojos confiados -->
  <circle cx="67" cy="70" r="1.8" fill="#2D1F60"/>
  <circle cx="77" cy="70" r="1.8" fill="#2D1F60"/>
  <!-- sonrisa -->
  <path d="M66 75 Q72 81 78 75" stroke="#2D1F60" stroke-width="2" fill="none" stroke-linecap="round"/>
  <!-- corazon -->
  <path d="M68 98 Q72 93 76 98 Q80 103 72 108 Q64 103 68 98Z" fill="#E8706A"/>
</svg>
