<svg width="180" height="221" viewBox="0 0 180 221" fill="none" xmlns="http://www.w3.org/2000/svg">
<path d="M109.94 142.424C109.94 142.424 110.14 126.924 124.94 106.524C135.84 91.5245 180.84 60.9245 179.64 100.424C178.44 138.624 152.24 139.324 146.54 157.024C141.34 173.325 163.34 206.825 138.04 219.024C123.14 226.224 100.84 207.524 93.3401 186.824C91.6401 182.124 54.4401 189.324 62.2401 155.124C68.0401 129.324 109.94 142.424 109.94 142.424Z" fill="#59C8CA"/>
<path d="M15.1401 46.5245C15.1401 46.5245 7.34011 26.2245 21.7401 12.6245C42.9401 -7.27551 64.9401 14.6245 64.9401 14.6245C64.9401 14.6245 81.4401 -10.0755 105.54 4.72449C121.44 14.4245 114.74 40.4245 114.74 40.4245C114.74 40.4245 135.14 48.3245 129.34 72.0245C121.74 103.324 92.2401 96.4245 92.2401 96.4245C92.2401 96.4245 96.3401 121.624 70.3401 126.824C33.9401 134.124 32.6401 98.7245 32.6401 98.7245C32.6401 98.7245 7.64009 103.824 0.540094 75.3245C-3.35991 59.1245 15.1401 46.5245 15.1401 46.5245Z" fill="#F9BAA7"/>
<path d="M78.9401 51.5245C77.6401 51.4245 76.2401 52.5245 75.5401 54.2245C74.8401 56.2245 75.3401 58.2245 76.8401 58.8245C78.2401 59.4245 80.0401 58.2245 80.7401 56.3245C81.4401 54.3245 80.9401 52.3245 79.4401 51.7245C79.3401 51.6245 79.1401 51.5245 78.9401 51.5245ZM61.2401 55.0245C60.0401 55.1245 58.6401 55.8245 57.6401 57.1245C56.0401 59.2245 55.9401 61.9245 57.4401 63.1245C58.9401 64.4245 61.4401 63.7245 63.0401 61.6245C64.6401 59.5245 64.7401 56.8245 63.2401 55.6245C62.6401 55.2245 61.9401 55.0245 61.2401 55.0245ZM88.6401 64.3245C86.7401 64.3245 85.1401 65.9245 85.1401 67.9245C85.1401 69.9245 86.7401 71.5245 88.6401 71.5245C90.5401 71.5245 92.1401 69.9245 92.1401 67.9245C92.1401 65.9245 90.5401 64.3245 88.6401 64.3245ZM74.8401 72.3245C69.5401 71.9245 80.0401 82.1245 91.7401 98.8245C104.14 116.524 108.04 125.624 114.64 142.124C121.24 158.624 125.74 173.324 124.24 165.224C122.74 157.124 117.04 133.724 109.64 119.624C103.04 107.024 80.9401 73.7245 76.1401 72.5245C75.6401 72.4245 75.2401 72.4245 74.8401 72.3245ZM59.2401 75.1245C57.4401 75.1245 56.0401 76.9245 56.0401 79.1245C56.0401 81.3245 57.4401 83.1245 59.2401 83.1245C61.0401 83.1245 62.4401 81.3245 62.4401 79.1245C62.4401 76.9245 61.0401 75.1245 59.2401 75.1245Z" fill="#7A787B"/>
</svg>
