<svg width="165" height="236" viewBox="0 0 165 236" fill="none" xmlns="http://www.w3.org/2000/svg">
<path d="M14.0545 195.415C25.6545 179.315 34.7545 167.815 35.1545 154.515C36.4545 117.915 51.1545 129.715 51.9545 93.1153C52.3545 75.4153 66.9545 60.9153 91.9545 57.2153C125.455 52.3153 156.855 46.7153 152.055 88.5153C147.355 129.115 154.355 124.315 161.355 147.215C168.555 170.515 163.355 169.815 128.655 189.715C106.255 202.515 118.955 206.715 83.4545 229.915C59.3545 245.715 -10.1455 229.115 14.0545 195.415Z" fill="#F8B8A6"/>
<path d="M41.2546 0.0153029C31.7546 0.715303 29.6546 17.8153 27.7546 19.9153C25.8546 22.0153 10.1546 8.5153 6.15455 17.7153C1.05455 29.3153 29.6546 38.7153 36.6546 32.5153C47.8546 22.8153 50.7546 -0.684697 41.2546 0.0153029ZM59.8546 19.9153C57.4546 20.0153 54.6546 20.8153 51.8546 22.6153C40.6546 29.8153 39.3546 47.2153 39.3546 47.2153C39.3546 47.2153 8.15455 26.1153 1.65455 39.0153C-8.74545 59.4153 32.7546 67.0153 46.1546 62.5153C50.4546 61.1153 52.5545 56.5153 64.7545 37.1153C71.3545 26.6153 67.0546 19.7153 59.8546 19.9153ZM70.3546 47.6153C68.3546 47.5153 66.1546 48.0153 64.0546 49.1153C55.6546 53.5153 51.1546 68.9153 47.6546 72.1153C44.1546 75.3153 16.0546 52.0153 9.35457 76.2153C3.15457 98.7153 53.2545 89.3153 56.4545 87.5153C59.2545 85.9153 60.0546 87.0153 72.0546 67.2153C80.0546 54.2153 76.2546 48.0153 70.3546 47.6153ZM82.4545 71.9153C79.6545 71.8153 76.5546 73.1153 73.3546 76.1153C63.1546 85.8153 61.6546 97.3153 61.6546 97.3153C61.6546 97.3153 29.0546 85.8153 27.2546 104.315C25.2546 124.315 63.5546 111.815 66.8546 109.815C70.1546 107.815 80.0545 103.215 86.7545 94.9153C95.4545 84.1153 90.7545 72.1153 82.4545 71.9153Z" fill="#C6ACC7"/>
<path d="M31.7546 26.4153C33.3546 34.7153 43.1546 72.2153 71.1546 122.715C99.1546 173.215 111.655 190.215 106.155 179.115C100.655 168.015 76.0546 122.415 60.8546 88.2153C45.5546 54.0153 28.0546 7.6153 31.7546 26.4153Z" fill="#D0B0A8"/>
</svg>
