<svg width="128" height="166" viewBox="0 0 128 166" fill="none" xmlns="http://www.w3.org/2000/svg">
<path d="M62.5415 67.2208C50.0415 62.7208 34.0415 52.2208 28.9415 41.5208C23.8415 30.9208 25.6414 20.4208 35.4415 19.0208C45.2415 17.5208 51.0415 33.4208 51.0415 29.7208C51.0415 26.0208 47.8415 7.92081 56.2415 2.32081C64.0415 -2.87919 69.5415 0.520821 71.9415 13.9208C74.4415 27.3208 74.6414 26.1208 75.8414 21.2208C77.0414 16.3208 83.2414 2.62084 91.6414 3.72084C102.441 5.22084 100.941 12.6208 98.8414 20.4208C97.9414 23.6208 96.3415 27.3208 96.0415 29.0208C95.1415 32.7208 102.041 23.9208 104.141 22.2208C113.041 14.6208 125.641 23.9208 117.141 36.2208C103.841 55.7208 91.2415 62.5208 88.4415 64.1208C83.0415 67.1208 75.0415 71.7208 62.5415 67.2208Z" fill="#DBBBC9"/>
<path d="M27.5415 108.921C53.6415 113.921 63.1415 112.421 62.7415 99.5208C61.5415 61.4208 106.841 62.9208 116.941 70.6208C127.041 78.2208 129.641 89.1208 125.141 105.121C120.641 121.121 120.341 118.821 122.941 131.621C126.441 148.821 117.941 171.521 95.4415 163.521C70.9415 154.721 72.4415 139.321 60.0415 146.721C47.6415 154.121 28.3415 163.921 11.0415 151.121C-10.2585 135.321 1.44147 103.921 27.5415 108.921Z" fill="#EFB2C2"/>
<path d="M67.3414 59.9208C67.3414 59.9208 56.0414 49.4208 58.1414 47.7208C60.3414 46.0208 66.5415 55.3208 67.4415 55.1208C68.3415 54.9208 68.1415 47.0208 69.7415 47.0208C71.4415 47.0208 70.9415 53.6208 70.9415 53.6208C70.9415 53.6208 82.7414 44.7208 83.8414 47.7208C84.9414 50.6208 82.9414 50.5208 78.8414 53.9208C74.7414 57.3208 71.8414 58.0208 71.1414 60.9208C70.5414 63.8208 72.9415 89.1208 76.4415 100.921C79.9415 112.721 85.5415 122.321 82.5415 120.021C77.9415 116.421 71.7414 98.1208 70.3414 90.2208C69.1414 82.3208 67.3414 59.9208 67.3414 59.9208Z" fill="#797979"/>
</svg>
