<svg width="173" height="239" viewBox="0 0 173 239" fill="none" xmlns="http://www.w3.org/2000/svg">
<path d="M93.6863 1.68383C127.186 -8.51617 123.186 30.4839 124.986 41.9839C126.086 48.7839 128.786 55.4839 144.186 45.4839C166.386 31.0839 184.086 73.4838 162.786 87.8838C153.486 94.1838 148.286 91.9839 150.886 99.9839C153.486 107.984 169.086 140.284 134.386 142.784C108.786 144.584 112.286 109.684 100.986 112.484C89.6863 115.284 68.1863 140.684 47.9863 117.584C29.2863 96.0839 57.7863 81.7839 50.2863 79.0839C34.7863 73.4839 19.9863 57.3839 40.7863 37.0839C57.5863 20.5839 76.1863 51.9839 81.2863 42.7839C87.3863 31.6839 71.4863 8.48383 93.6863 1.68383Z" fill="#FA9A90"/>
<path d="M16.5863 160.484C22.1863 148.884 31.2863 141.384 48.8863 135.784C70.6863 128.884 82.0863 144.984 88.2863 158.984C94.4863 172.984 97.0863 171.184 109.586 168.984C125.886 166.084 162.486 197.784 133.486 228.984C109.686 254.684 80.7863 219.784 59.2863 228.784C39.0863 237.184 -5.1137 240.784 0.486302 187.284C1.2863 178.484 10.9863 172.084 16.5863 160.484Z" fill="#FBBEAC"/>
<path d="M103.086 72.1838C103.086 72.1838 101.686 56.3839 103.386 55.9839C106.686 55.1839 106.886 71.0838 107.486 70.5838C111.986 67.2838 126.186 59.9839 129.286 64.4839C131.586 67.8839 108.186 77.0839 108.786 77.2839C111.186 78.0839 126.486 82.4838 124.886 86.3838C122.986 90.9838 107.386 80.0838 107.686 82.1838C108.286 85.7838 106.686 126.784 95.0863 167.784C87.3863 195.184 74.5863 217.384 76.8863 211.084C79.0863 204.784 92.5863 158.784 95.3863 145.584C101.286 117.284 103.986 81.2839 101.986 82.4839C99.8863 83.6839 86.6863 95.8838 88.0863 90.6838C89.8863 83.9838 100.386 79.2838 99.5863 77.8838C98.3863 75.6838 80.3863 67.1838 83.5863 63.5838C86.3863 59.9838 103.086 72.1838 103.086 72.1838Z" fill="#7A7A7A"/>
</svg>
