<svg width="228" height="271" viewBox="0 0 228 271" fill="none" xmlns="http://www.w3.org/2000/svg">
<path d="M30.0637 146.435C79.8637 126.735 113.464 109.735 138.264 93.4347C163.064 77.1347 167.564 80.9347 185.064 88.5347C202.664 96.1347 243.764 116.635 205.364 131.335C170.064 144.835 167.564 155.335 145.964 174.235C123.564 193.835 103.964 178.935 86.1637 206.435C68.3637 233.935 60.6637 278.735 24.0637 269.235C-3.73631 261.935 -14.2363 163.935 30.0637 146.435Z" fill="#CDEBED"/>
<path d="M173.264 19.8347C173.264 19.8347 186.564 5.23473 203.164 1.03473C219.764 -3.16527 239.264 5.73473 218.364 22.0347C199.664 36.7347 196.364 42.1347 196.364 42.1347C196.364 42.1347 220.164 41.9347 220.464 59.1347C220.764 79.8347 170.264 80.2347 174.064 82.7347C177.764 85.1347 190.964 103.235 173.264 113.035C155.564 122.935 145.764 120.435 143.764 122.635C140.864 125.835 160.364 134.335 145.764 147.735C129.264 162.835 98.4637 153.735 80.4637 138.635C71.8637 131.335 49.3637 82.0347 66.4637 59.3347C85.3637 34.1347 94.3637 76.0347 96.5637 72.0347C101.064 63.8347 100.164 30.7347 118.664 24.2347C130.764 19.9347 128.564 50.3347 130.764 43.9347C132.964 37.5347 139.664 11.1347 154.464 3.53473C171.664 -5.46527 173.264 19.8347 173.264 19.8347Z" fill="#97C2B9"/>
<path d="M196.264 22.4347C195.664 21.8347 182.964 30.9347 165.464 45.9347C164.864 42.7347 164.564 35.2347 162.264 36.9347C159.364 39.2347 159.564 47.8347 159.764 50.8347C151.364 58.2347 142.164 66.7347 132.664 76.1347C131.864 72.6347 129.564 62.9347 127.064 68.6347C126.364 70.2347 127.164 76.7347 128.764 80.0347C120.264 88.5347 111.764 97.7347 103.664 107.235C101.764 109.435 100.064 111.435 98.3637 113.535C97.6637 108.735 97.1637 100.035 95.1637 99.3347C92.7637 98.5347 91.0637 112.735 93.8637 119.035C53.5637 168.135 43.6637 194.435 40.9637 204.535C38.1637 215.435 57.4636 173.635 77.0636 148.135C83.9636 139.135 90.5637 130.835 97.3637 122.435C101.064 123.935 107.064 124.135 112.464 122.135C120.064 119.235 107.364 118.235 101.664 117.335C110.664 106.635 120.464 95.6347 132.764 82.8347C139.064 84.7347 147.664 85.8347 147.764 82.9347C147.764 80.8347 141.364 79.3347 136.964 78.5347C137.964 77.5347 138.864 76.5347 139.864 75.5347C148.464 66.7347 156.264 59.3347 163.164 52.8347C165.664 53.2347 168.964 53.5347 171.964 53.5347C175.464 53.4347 177.864 52.7347 175.664 50.3347C173.664 48.1347 170.764 47.9347 168.664 47.8347C182.864 34.8347 192.264 27.1347 195.064 24.3347C195.964 23.1347 196.364 22.6347 196.264 22.4347Z" fill="#7E8686"/>
</svg>
