<svg width="165" height="212" viewBox="0 0 165 212" fill="none" xmlns="http://www.w3.org/2000/svg">
<path d="M12.133 153.755C26.433 146.655 25.833 140.755 51.133 142.555C74.733 144.155 68.833 135.755 91.733 128.855C121.533 119.755 130.833 131.955 137.833 142.655C144.833 153.455 136.133 182.655 106.433 174.555C89.333 169.955 92.733 167.955 80.333 184.655C67.933 201.355 62.933 216.255 35.333 210.355C23.533 207.855 29.933 192.155 12.533 189.655C0.833008 187.955 -8.36699 163.955 12.133 153.755Z" fill="#F8DFCD"/>
<path d="M68.333 45.1553C63.333 20.5553 60.633 3.25528 73.033 0.255277C88.433 -3.44472 93.733 34.1553 96.833 43.1553C98.333 47.5553 104.733 0.455273 121.833 3.05527C137.733 5.45527 111.333 52.9553 115.933 50.9553C120.533 48.9553 159.233 31.8553 164.033 47.5553C168.833 63.1553 129.933 67.0553 133.933 70.3553C136.833 72.6553 166.233 77.5553 158.433 90.4553C154.033 97.6553 125.133 91.9553 127.233 95.1553C129.133 98.0553 149.833 114.455 139.233 120.255C126.033 127.555 99.233 89.9553 102.433 96.9553C105.633 103.955 117.333 130.855 102.333 136.755C87.433 142.655 87.433 96.9553 84.633 99.4553C81.933 101.955 63.733 114.955 58.433 106.155C51.633 94.8553 83.633 73.8553 76.733 77.0553C69.733 80.2553 34.433 96.3553 31.433 82.8553C28.433 69.3553 65.133 62.7553 60.233 61.2553C53.333 59.0553 29.933 53.6553 35.733 44.3553C43.633 31.7553 69.133 48.7553 68.333 45.1553Z" fill="#FBCC6C"/>
<path d="M87.933 55.8553C86.933 55.9553 85.733 56.3553 84.433 57.0553C77.333 60.9553 83.833 74.4553 87.133 76.0553C88.333 76.6553 71.233 99.2553 61.533 128.355C49.033 166.355 54.933 183.555 56.833 183.655C59.233 183.755 57.533 164.855 66.433 134.355C72.133 114.655 90.833 78.6553 92.433 79.3553C94.133 80.0553 110.133 84.2553 113.433 75.6553C117.933 64.1553 98.733 67.5553 97.533 67.2553C96.033 66.8553 95.133 55.0553 87.933 55.8553ZM89.733 60.7553C93.933 60.9553 92.633 73.2553 91.833 73.0553C88.733 72.3553 83.933 62.3553 88.733 60.8553C89.133 60.7553 89.433 60.7553 89.733 60.7553ZM106.433 70.8553C106.833 70.8553 107.133 70.9553 107.433 71.0553C111.633 72.8553 107.833 74.2553 105.233 73.9553C101.433 73.5553 99.733 74.2553 99.833 73.2553C99.933 72.6553 103.933 70.6553 106.433 70.8553Z" fill="#B2A8A2"/>
</svg>
