<svg width="190" height="149" viewBox="0 0 190 149" fill="none" xmlns="http://www.w3.org/2000/svg">
<path d="M46.0263 85.5451C45.8263 59.7451 64.4263 52.4451 67.1263 31.5451C69.8263 10.7451 84.3263 16.6451 102.726 25.3451C117.826 32.5451 118.226 29.4452 136.226 20.6452C155.526 11.2452 198.126 31.9451 187.626 51.0451C175.526 73.0451 168.726 77.8451 145.026 88.5451C127.026 96.6451 122.026 90.9451 107.326 123.445C97.1263 145.945 58.7263 161.445 44.9263 132.045C38.5263 118.745 46.3263 115.845 46.0263 85.5451Z" fill="#A3DCDE"/>
<path d="M18.7263 26.8451C18.7263 26.8451 13.3263 4.74511 20.8263 0.845108C31.8263 -4.85489 38.9263 20.1452 38.9263 20.1452C38.9263 20.1452 47.1263 11.4451 55.4263 19.9451C59.4263 24.0451 60.8263 36.2451 60.8263 36.2451C60.8263 36.2451 80.2263 35.1451 81.7263 58.5451C83.4263 85.1451 58.8263 87.8451 58.8263 87.8451C58.8263 87.8451 41.5263 120.345 14.3263 99.3451C2.22628 90.0451 11.0263 73.1452 11.0263 73.1452C11.0263 73.1452 0.826281 64.8451 0.0262814 56.0451C-0.473719 49.7451 6.32628 47.6452 6.32628 47.6452C6.32628 47.6452 -2.97372 35.9451 1.92628 28.3451C7.72628 19.4451 18.7263 26.8451 18.7263 26.8451Z" fill="#B5C9BD"/>
<path d="M31.3263 39.5451C31.3263 39.5451 26.6263 25.6451 30.6263 28.9451C32.1263 30.1451 34.3263 37.4451 34.3263 37.4451C34.3263 37.4451 39.0263 31.9452 39.9263 33.1452C40.9263 34.3452 35.8263 39.8452 35.4263 41.1452C35.0263 42.4452 43.0263 59.5451 43.0263 59.5451C43.0263 59.5451 45.6263 52.3451 48.1263 52.4451C49.6263 52.5451 44.4263 61.3451 45.0263 63.2451C45.1263 63.7451 50.1263 74.2451 59.6263 86.0451C68.0263 96.5451 79.1263 103.845 77.2263 103.345C75.7263 103.045 69.5263 101.345 56.5263 86.3451C50.6263 79.5451 42.1263 64.4451 42.1263 64.4451C42.1263 64.4451 31.4263 60.9451 33.1263 59.3451C34.8263 57.7451 40.5263 61.2451 40.5263 61.2451L32.6263 42.6452C32.6263 42.6452 24.4263 40.7451 25.3263 38.9451C26.1263 37.1451 31.3263 39.5451 31.3263 39.5451Z" fill="#B1A7A6"/>
</svg>
