<svg width="145" height="147" viewBox="0 0 145 147" fill="none" xmlns="http://www.w3.org/2000/svg">
<path d="M28.3927 77.3855C28.3927 77.3855 17.0927 70.1855 11.4927 87.5855C8.69269 96.3855 -1.80733 98.5855 2.29267 117.985C5.99267 135.285 35.0927 157.886 56.0927 139.086C86.8927 111.586 92.6927 142.786 112.793 133.586C130.193 125.586 156.193 107.585 139.493 93.7855C124.693 81.4855 119.193 64.3855 99.1927 72.1855C79.2927 79.9855 75.6927 84.1855 64.4927 81.2855C53.3927 78.5855 28.3927 77.3855 28.3927 77.3855Z" fill="#DAF6F9"/>
<path d="M70.4927 70.5855C70.4927 70.5855 69.0927 46.4855 88.4927 32.8855C107.893 19.3855 117.593 11.4855 122.593 3.08548C128.593 -7.01452 135.293 10.1854 135.093 18.7854C134.393 52.1854 113.093 91.9855 80.4927 95.1855C77.6927 95.4855 75.8927 92.8854 68.3927 93.4854C62.1927 93.9854 60.1927 93.8855 54.0927 92.3855C37.4927 88.2855 9.6927 78.4854 1.6927 43.9854C-3.5073 21.7854 4.49268 34.1855 9.29268 35.3855C60.4927 47.9855 70.4927 70.5855 70.4927 70.5855Z" fill="#58CACB"/>
<path d="M70.8927 87.7855C70.8927 87.7855 85.7926 63.2855 92.5926 63.6855C97.2926 63.8855 88.2927 70.6855 84.6927 75.7855C81.0927 80.8855 74.0927 86.5855 72.1927 101.086C70.1927 116.586 68.3926 119.986 67.5926 114.386C66.1926 104.186 70.0926 91.9855 70.0926 91.9855C70.0926 91.9855 46.7927 72.8855 50.4927 73.0855C62.2927 73.7855 70.8927 87.7855 70.8927 87.7855Z" fill="#777775"/>
</svg>
