<svg width="179" height="199" viewBox="0 0 179 199" fill="none" xmlns="http://www.w3.org/2000/svg">
<path d="M66.2211 48.6626C94.3211 55.4626 113.321 57.0626 130.821 51.3626C154.421 43.6626 187.821 67.9626 175.421 97.5626C166.021 120.163 162.321 117.363 167.121 143.463C169.821 157.863 154.121 182.163 130.621 195.563C119.921 201.563 97.0211 200.563 84.2211 167.763C71.4211 134.963 60.4211 134.063 39.6211 129.263C25.6211 126.063 -8.17887 114.063 1.82113 79.4626C10.3211 50.0626 38.1211 41.8626 66.2211 48.6626Z" fill="#EAD5DE"/>
<path d="M59.4211 39.9626C59.4211 39.9626 32.6211 23.3626 46.9211 10.0626C66.8211 -8.43741 78.1211 19.9626 80.3211 15.7626C82.5211 11.6626 86.4211 1.4626 98.4211 0.162597C113.921 -1.5374 114.721 10.6626 117.421 10.2626C120.121 9.8626 140.121 -3.2374 150.821 12.1626C160.221 25.7626 133.521 39.5626 131.221 50.0626C127.121 68.9626 130.421 88.6626 108.221 94.1626C75.4211 102.463 59.4211 39.9626 59.4211 39.9626Z" fill="#EEB1C2"/>
<path d="M78.7211 43.5626C81.0211 39.8626 94.9211 58.2626 94.8211 56.4626C94.6211 52.6626 91.2211 42.8626 94.5211 41.5626C97.8211 40.2626 98.7211 58.8626 99.5211 56.8626C100.321 54.8626 103.021 43.3626 109.421 37.5626C115.821 31.6626 118.021 33.1626 112.021 40.9626C107.121 47.4626 106.321 61.3626 103.221 69.7626C101.921 73.3626 109.321 99.6626 117.321 118.463C122.521 130.563 131.721 143.863 128.521 141.763C121.021 136.763 108.321 117.863 97.5211 69.8626C97.0211 67.0626 76.6211 47.0626 78.7211 43.5626Z" fill="#B4A6A6"/>
</svg>
