<svg viewBox="0 0 60 60" fill="none" xmlns="http://www.w3.org/2000/svg">
  <ellipse cx="30" cy="31" rx="26" ry="25" fill="#FEF3C7"/>
  <path d="M8 47 Q8 38 18 38 Q28 38 28 47" fill="#FBCFE8"/>
  <path d="M32 47 Q32 38 42 38 Q52 38 52 47" fill="#EDE9FE"/>
  <circle cx="18" cy="25" r="8" fill="#FBB6CE"/>
  <path d="M10 23 Q11 15 18 14 Q25 15 26 23 Q22 18 14 18 Q11 18 10 23Z" fill="#F9A8D4"/>
  <circle cx="42" cy="25" r="8" fill="#DDD6FE"/>
  <path d="M34 23 Q35 15 42 14 Q49 15 50 23 Q46 18 38 18 Q35 18 34 23Z" fill="#A78BFA"/>
  <path d="M30 45 C30 45 22 39 22 34 C22 30 25.5 28 28.5 30.5 C29.2 31.2 30 32.5 30 32.5 C30 32.5 30.8 31.2 31.5 30.5 C34.5 28 38 30 38 34 C38 39 30 45 30 45Z" fill="#F9A8D4"/>
</svg>
